<svg xmlns="http://www.w3.org/2000/svg" width="303.92" height="35" viewBox="0 0 303.92 35"><rect class="svg__rect" x="0" y="0" width="127.25" height="35" fill="#31C4F3"/><rect class="svg__rect" x="125.25" y="0" width="178.67000000000002" height="35" fill="#389AD5"/><path class="svg__text" d="M15.70 22L14.22 22L14.22 13.47L17.48 13.47Q18.91 13.47 19.75 14.21Q20.59 14.96 20.59 16.18L20.59 16.18Q20.59 17.44 19.77 18.13Q18.95 18.83 17.46 18.83L17.46 18.83L15.70 18.83L15.70 22ZM15.70 14.66L15.70 17.64L17.48 17.64Q18.27 17.64 18.69 17.27Q19.10 16.90 19.10 16.19L19.10 16.19Q19.10 15.50 18.68 15.09Q18.26 14.68 17.52 14.66L17.52 14.66L15.70 14.66ZM24.61 18.00L24.61 18.00L24.61 17.52Q24.61 16.28 25.05 15.32Q25.49 14.37 26.30 13.86Q27.10 13.35 28.14 13.35Q29.19 13.35 29.99 13.85Q30.80 14.35 31.24 15.29Q31.68 16.23 31.68 17.48L31.68 17.48L31.68 17.96Q31.68 19.21 31.25 20.16Q30.82 21.10 30.01 21.61Q29.21 22.12 28.16 22.12L28.16 22.12Q27.12 22.12 26.31 21.61Q25.50 21.10 25.05 20.17Q24.61 19.23 24.61 18.00ZM26.09 17.46L26.09 17.96Q26.09 19.36 26.64 20.13Q27.18 20.90 28.16 20.90L28.16 20.90Q29.14 20.90 29.67 20.15Q30.20 19.40 30.20 17.96L30.20 17.96L30.20 17.51Q30.20 16.09 29.67 15.34Q29.13 14.58 28.14 14.58L28.14 14.58Q27.18 14.58 26.64 15.33Q26.10 16.09 26.09 17.46L26.09 17.46ZM37.53 22L35.56 13.47L37.03 13.47L38.36 19.88L39.99 13.47L41.23 13.47L42.84 19.89L44.15 13.47L45.62 13.47L43.65 22L42.24 22L40.61 15.77L38.96 22L37.53 22ZM55.27 22L49.70 22L49.70 13.47L55.23 13.47L55.23 14.66L51.18 14.66L51.18 17.02L54.68 17.02L54.68 18.19L51.18 18.19L51.18 20.82L55.27 20.82L55.27 22ZM60.95 22L59.47 22L59.47 13.47L62.47 13.47Q63.95 13.47 64.75 14.13Q65.55 14.79 65.55 16.05L65.55 16.05Q65.55 16.90 65.14 17.48Q64.72 18.06 63.99 18.37L63.99 18.37L65.90 21.92L65.90 22L64.31 22L62.60 18.71L60.95 18.71L60.95 22ZM60.95 14.66L60.95 17.52L62.48 17.52Q63.23 17.52 63.65 17.15Q64.07 16.77 64.07 16.11L64.07 16.11Q64.07 15.43 63.68 15.05Q63.29 14.68 62.52 14.66L62.52 14.66L60.95 14.66ZM75.52 22L69.95 22L69.95 13.47L75.48 13.47L75.48 14.66L71.43 14.66L71.43 17.02L74.93 17.02L74.93 18.19L71.43 18.19L71.43 20.82L75.52 20.82L75.52 22ZM82.17 22L79.72 22L79.72 13.47L82.24 13.47Q83.37 13.47 84.25 13.97Q85.12 14.48 85.60 15.40Q86.08 16.33 86.08 17.52L86.08 17.52L86.08 17.95Q86.08 19.16 85.60 20.08Q85.12 21.00 84.22 21.50Q83.33 22 82.17 22L82.17 22ZM81.20 14.66L81.20 20.82L82.17 20.82Q83.33 20.82 83.96 20.09Q84.58 19.36 84.59 17.99L84.59 17.99L84.59 17.52Q84.59 16.13 83.99 15.40Q83.39 14.66 82.24 14.66L82.24 14.66L81.20 14.66ZM99.64 22L96.52 22L96.52 13.47L99.45 13.47Q100.89 13.47 101.65 14.05Q102.41 14.63 102.41 15.78L102.41 15.78Q102.41 16.36 102.09 16.83Q101.77 17.30 101.16 17.56L101.16 17.56Q101.86 17.75 102.23 18.26Q102.61 18.78 102.61 19.51L102.61 19.51Q102.61 20.71 101.84 21.36Q101.07 22 99.64 22L99.64 22ZM98.01 18.15L98.01 20.82L99.65 20.82Q100.35 20.82 100.74 20.47Q101.14 20.13 101.14 19.51L101.14 19.51Q101.14 18.18 99.78 18.15L99.78 18.15L98.01 18.15ZM98.01 14.66L98.01 17.06L99.46 17.06Q100.15 17.06 100.54 16.75Q100.93 16.43 100.93 15.86L100.93 15.86Q100.93 15.23 100.57 14.95Q100.21 14.66 99.45 14.66L99.45 14.66L98.01 14.66ZM109.12 18.86L106.26 13.47L107.90 13.47L109.87 17.51L111.83 13.47L113.47 13.47L110.61 18.86L110.61 22L109.12 22L109.12 18.86Z" fill="#FFFFFF"/><path class="svg__text" d="M141.82 22L139.44 22L139.44 13.60L143.28 13.60Q144.42 13.60 145.26 13.98Q146.10 14.35 146.56 15.06Q147.01 15.76 147.01 16.71L147.01 16.71Q147.01 17.66 146.56 18.35Q146.10 19.05 145.26 19.42Q144.42 19.80 143.28 19.80L143.28 19.80L141.82 19.80L141.82 22ZM141.82 15.47L141.82 17.93L143.14 17.93Q143.87 17.93 144.24 17.61Q144.61 17.29 144.61 16.71L144.61 16.71Q144.61 16.12 144.24 15.80Q143.87 15.47 143.14 15.47L143.14 15.47L141.82 15.47ZM154.14 22L151.77 22L151.77 13.60L154.14 13.60L154.14 22ZM166.06 22L159.32 22L159.32 13.60L165.91 13.60L165.91 15.44L161.67 15.44L161.67 16.85L165.41 16.85L165.41 18.63L161.67 18.63L161.67 20.17L166.06 20.17L166.06 22ZM173.25 22L170.87 22L170.87 13.60L174.71 13.60Q175.85 13.60 176.69 13.98Q177.53 14.35 177.99 15.06Q178.44 15.76 178.44 16.71L178.44 16.71Q178.44 17.62 178.02 18.30Q177.59 18.98 176.80 19.36L176.80 19.36L178.61 22L176.06 22L174.54 19.77L173.25 19.77L173.25 22ZM173.25 15.47L173.25 17.93L174.56 17.93Q175.30 17.93 175.67 17.61Q176.04 17.29 176.04 16.71L176.04 16.71Q176.04 16.12 175.67 15.79Q175.30 15.47 174.56 15.47L174.56 15.47L173.25 15.47ZM185.61 22L183.23 22L183.23 13.60L187.07 13.60Q188.22 13.60 189.06 13.98Q189.89 14.35 190.35 15.06Q190.81 15.76 190.81 16.71L190.81 16.71Q190.81 17.62 190.38 18.30Q189.95 18.98 189.16 19.36L189.16 19.36L190.97 22L188.43 22L186.90 19.77L185.61 19.77L185.61 22ZM185.61 15.47L185.61 17.93L186.93 17.93Q187.66 17.93 188.03 17.61Q188.40 17.29 188.40 16.71L188.40 16.71Q188.40 16.12 188.03 15.79Q187.66 15.47 186.93 15.47L186.93 15.47L185.61 15.47ZM202.34 22L195.59 22L195.59 13.60L202.19 13.60L202.19 15.44L197.95 15.44L197.95 16.85L201.68 16.85L201.68 18.63L197.95 18.63L197.95 20.17L202.34 20.17L202.34 22ZM213.65 19.80L213.65 19.80Q213.65 19.01 214.07 18.42Q214.49 17.82 215.40 17.33L215.40 17.33Q214.60 16.52 214.60 15.64L214.60 15.64Q214.60 15.00 214.94 14.51Q215.29 14.02 215.93 13.75Q216.58 13.48 217.42 13.48L217.42 13.48Q218.59 13.48 219.30 14.03Q220.01 14.57 220.01 15.50L220.01 15.50Q220.01 16.15 219.63 16.65Q219.25 17.15 218.45 17.59L218.45 17.59L219.68 18.69Q219.92 18.16 220.05 17.49L220.05 17.49L221.88 18.04Q221.64 19.12 221.10 19.95L221.10 19.95L221.99 20.74L220.77 22.15L219.82 21.30Q219.23 21.72 218.51 21.95Q217.79 22.17 217.00 22.17L217.00 22.17Q216.05 22.17 215.28 21.86Q214.51 21.55 214.08 21.02Q213.65 20.48 213.65 19.80ZM215.88 19.55L215.88 19.55Q215.88 19.94 216.23 20.18Q216.58 20.43 217.17 20.43L217.17 20.43Q217.87 20.42 218.45 20.08L218.45 20.08L216.64 18.47Q216.24 18.71 216.06 18.97Q215.88 19.23 215.88 19.55ZM216.68 15.60L216.68 15.60Q216.68 15.81 216.79 15.99Q216.90 16.18 217.22 16.48L217.22 16.48Q217.70 16.23 217.89 16.01Q218.09 15.78 218.09 15.54L218.09 15.54Q218.09 15.28 217.92 15.13Q217.74 14.98 217.42 14.98L217.42 14.98Q217.07 14.98 216.87 15.15Q216.68 15.33 216.68 15.60ZM235.98 22L233.60 22L233.60 13.60L235.98 13.60L235.98 16.76L239.22 16.76L239.22 13.60L241.59 13.60L241.59 22L239.22 22L239.22 18.72L235.98 18.72L235.98 22ZM248.17 22L245.74 22L249.45 13.60L251.80 13.60L255.51 22L253.05 22L252.38 20.37L248.83 20.37L248.17 22ZM250.61 15.93L249.52 18.61L251.69 18.61L250.61 15.93ZM262.05 22L259.67 22L259.67 13.60L263.51 13.60Q264.65 13.60 265.49 13.98Q266.33 14.35 266.79 15.06Q267.24 15.76 267.24 16.71L267.24 16.71Q267.24 17.62 266.81 18.30Q266.39 18.98 265.60 19.36L265.60 19.36L267.41 22L264.86 22L263.34 19.77L262.05 19.77L262.05 22ZM262.05 15.47L262.05 17.93L263.36 17.93Q264.10 17.93 264.47 17.61Q264.84 17.29 264.84 16.71L264.84 16.71Q264.84 16.12 264.47 15.79Q264.10 15.47 263.36 15.47L263.36 15.47L262.05 15.47ZM274.41 22L272.03 22L272.03 13.60L275.87 13.60Q277.02 13.60 277.85 13.98Q278.69 14.35 279.15 15.06Q279.61 15.76 279.61 16.71L279.61 16.71Q279.61 17.62 279.18 18.30Q278.75 18.98 277.96 19.36L277.96 19.36L279.77 22L277.23 22L275.70 19.77L274.41 19.77L274.41 22ZM274.41 15.47L274.41 17.93L275.73 17.93Q276.46 17.93 276.83 17.61Q277.20 17.29 277.20 16.71L277.20 16.71Q277.20 16.12 276.83 15.79Q276.46 15.47 275.73 15.47L275.73 15.47L274.41 15.47ZM286.52 18.95L283.31 13.60L285.82 13.60L287.81 16.94L289.81 13.60L292.11 13.60L288.89 18.99L288.89 22L286.52 22L286.52 18.95Z" fill="#FFFFFF" x="138.25"/></svg>